<svg width="24" height="24" viewBox="0 0 24 24" xmlns="http://www.w3.org/2000/svg">
<path d="M14.447 1.105C14.109 0.938 13.703 0.973 13.4 1.2L5.667 7H1C0.447 7 0 7.447 0 8V16C0 16.553 0.447 17 1 17H5.667L13.4 22.8C13.576 22.933 13.788 23 14 23C14.152 23 14.306 22.965 14.447 22.895C14.786 22.725 15 22.379 15 22V2C15 1.621 14.786 1.275 14.447 1.105Z"/>
<path d="M18.243 7.758L17.536 7.051L16.122 8.465L16.829 9.172C18.389 10.732 18.389 13.269 16.829 14.828L16.122 15.535L17.536 16.949L18.243 16.242C20.582 13.903 20.582 10.097 18.243 7.758Z"/>
<path d="M20.364 4.222L18.95 5.636L19.657 6.343C22.776 9.462 22.776 14.538 19.657 17.657L18.95 18.364L20.364 19.778L21.071 19.071C24.97 15.172 24.97 8.828 21.071 4.928L20.364 4.222Z"/>
</svg>
