<svg width="24" height="24" viewBox="0 0 24 24" xmlns="http://www.w3.org/2000/svg">
<path d="M8.45455 2H3.90909C3.66799 2 3.43675 2.09578 3.26627 2.26627C3.09578 2.43675 3 2.66799 3 2.90909V21.0909C3 21.332 3.09578 21.5632 3.26627 21.7337C3.43675 21.9042 3.66799 22 3.90909 22H8.45455C8.69565 22 8.92688 21.9042 9.09737 21.7337C9.26786 21.5632 9.36364 21.332 9.36364 21.0909V2.90909C9.36364 2.66799 9.26786 2.43675 9.09737 2.26627C8.92688 2.09578 8.69565 2 8.45455 2Z"/>
<path d="M19.8182 2H15.2727C15.0316 2 14.8004 2.09578 14.6299 2.26627C14.4594 2.43675 14.3636 2.66799 14.3636 2.90909V21.0909C14.3636 21.332 14.4594 21.5632 14.6299 21.7337C14.8004 21.9042 15.0316 22 15.2727 22H19.8182C20.0593 22 20.2905 21.9042 20.461 21.7337C20.6315 21.5632 20.7273 21.332 20.7273 21.0909V2.90909C20.7273 2.66799 20.6315 2.43675 20.461 2.26627C20.2905 2.09578 20.0593 2 19.8182 2Z"/>
</svg>
