<svg width="24" height="24" viewBox="0 0 24 24" xmlns="http://www.w3.org/2000/svg">
<path fill-rule="evenodd" clip-rule="evenodd" d="M1 4H23C23.2652 4 23.5196 4.10536 23.7071 4.29289C23.8946 4.48043 24 4.73478 24 5V19C24 19.2652 23.8946 19.5196 23.7071 19.7071C23.5196 19.8946 23.2652 20 23 20H1C0.734784 20 0.48043 19.8946 0.292893 19.7071C0.105357 19.5196 0 19.2652 0 19V5C0 4.73478 0.105357 4.48043 0.292893 4.29289C0.48043 4.10536 0.734784 4 1 4ZM9.18555 16.5312H10.9434V8H9.18555V11.457H5.75781V8H4V16.5312H5.75781V12.875H9.18555V16.5312ZM13.4444 8V16.5312H16.087C16.833 16.5273 17.503 16.3555 18.0967 16.0156C18.6905 15.6758 19.1495 15.1973 19.4737 14.5801C19.8018 13.9629 19.9659 13.2578 19.9659 12.4648V12.0723C19.9659 11.2793 19.7998 10.5723 19.4678 9.95117C19.1358 9.32617 18.6729 8.8457 18.0791 8.50977C17.4893 8.16992 16.8194 8 16.0694 8H13.4444ZM15.2022 15.1191V9.42383H16.0694C16.7608 9.42383 17.2862 9.64844 17.6455 10.0977C18.0049 10.543 18.1846 11.1992 18.1846 12.0664V12.5176C18.1768 13.3535 17.9912 13.9961 17.628 14.4453C17.2647 14.8945 16.7393 15.1191 16.0518 15.1191H15.2022Z"/>
</svg>
