<svg width="24" height="24" viewBox="0 0 24 24" xmlns="http://www.w3.org/2000/svg">
<path d="M12.625 3.219C12.324 2.978 11.913 2.931 11.567 3.099C11.22 3.266 11 3.615 11 4V10.719L1.625 3.219C1.324 2.978 0.912 2.931 0.567 3.099C0.22 3.266 0 3.615 0 4V20C0 20.385 0.22 20.734 0.567 20.901C0.705 20.968 0.853 21 1 21C1.223 21 1.444 20.926 1.625 20.781L11 13.281V20C11 20.385 11.22 20.734 11.567 20.901C11.705 20.968 11.853 21 12 21C12.223 21 12.444 20.926 12.625 20.781L22.625 12.781C22.862 12.591 23 12.304 23 12C23 11.696 22.862 11.409 22.625 11.219L12.625 3.219Z"/>
<rect x="21" y="3.0625" width="2" height="18" rx="1"/>
</svg>
