<svg width="24" height="24" viewBox="0 0 24 24" xmlns="http://www.w3.org/2000/svg">
<path d="M22.5 5.5H2.5C1.94772 5.5 1.5 5.94772 1.5 6.5V18.5C1.5 19.0523 1.94772 19.5 2.5 19.5H22.5C23.0523 19.5 23.5 19.0523 23.5 18.5V6.5C23.5 5.94772 23.0523 5.5 22.5 5.5Z" stroke-miterlimit="10" stroke-linecap="square"/>
<path d="M10.92 15.241C10.421 15.421 9.89341 15.5088 9.363 15.5C8.99894 15.5223 8.63444 15.4643 8.29524 15.3302C7.95605 15.1961 7.65044 14.9892 7.4 14.724C6.9031 14.0933 6.65698 13.3012 6.709 12.5C6.6967 11.9505 6.81062 11.4055 7.042 10.907C7.24892 10.468 7.58535 10.103 8.006 9.861C8.45896 9.61157 8.97007 9.48698 9.487 9.5C10.0597 9.49467 10.6257 9.62308 11.14 9.875" stroke-miterlimit="10" stroke-linecap="square"/>
<path d="M18.072 15.241C17.573 15.4208 17.0454 15.5086 16.515 15.5C16.1501 15.5231 15.7846 15.4656 15.4445 15.3315C15.1043 15.1974 14.7979 14.99 14.547 14.724C14.0511 14.093 13.8064 13.3007 13.86 12.5C13.8477 11.9505 13.9616 11.4055 14.193 10.907C14.4006 10.4681 14.7373 10.1032 15.158 9.861C15.6109 9.61148 16.1221 9.48689 16.639 9.5C17.2114 9.49457 17.7771 9.62299 18.291 9.875" stroke-miterlimit="10" stroke-linecap="square"/>
</svg>
