<svg width="24" height="24" viewBox="0 0 24 24" xmlns="http://www.w3.org/2000/svg">
<path d="M2.414 23L7.707 17.707L7.707 22.293H9.707L9.707 15.293C9.707 15.0278 9.60164 14.7735 9.41411 14.5859C9.22657 14.3984 8.97222 14.293 8.707 14.293L1.707 14.293V16.293H6.293L1 21.586L2.414 23Z"/>
<path d="M15.293 9.70699L22.293 9.70699V7.70699L17.707 7.70699L23 2.41399L21.586 0.999994L16.293 6.29299V1.70699H14.293L14.293 8.70699C14.293 8.97221 14.3984 9.22656 14.5859 9.4141C14.7734 9.60164 15.0278 9.70699 15.293 9.70699Z"/>
<path d="M1.707 7.70709V9.70709L8.707 9.70709C8.97222 9.70709 9.22657 9.60173 9.41411 9.41419C9.60164 9.22666 9.707 8.9723 9.707 8.70709L9.707 1.70709L7.707 1.70709L7.707 6.29309L2.414 1.00009L1 2.41409L6.293 7.70709L1.707 7.70709Z"/>
<path d="M16.293 17.707L21.586 23L23 21.586L17.707 16.293H22.293L22.293 14.293L15.293 14.293C15.0278 14.293 14.7734 14.3984 14.5859 14.5859C14.3984 14.7735 14.293 15.0278 14.293 15.293L14.293 22.293L16.293 22.293V17.707Z"/>
</svg>
