<svg width="24" height="24" viewBox="0 0 24 24" xmlns="http://www.w3.org/2000/svg">
<g clip-path="url(#clip0)">
<path d="M10.567 17.675L17.4 22.8C17.576 22.933 17.788 23 18 23C18.152 23 18.306 22.965 18.447 22.895C18.786 22.725 19 22.379 19 22V9.242L10.567 17.675Z"/>
<path d="M2 17H7L19 5V2C19 1.621 18.786 1.275 18.447 1.105C18.109 0.938 17.703 0.973 17.4 1.2L9.667 7H2C1.447 7 1 7.447 1 8V16C1 16.553 1.447 17 2 17Z"/>
<path d="M1.00001 24C0.744006 24 0.488006 23.902 0.293006 23.707C-0.0979941 23.316 -0.0979941 22.684 0.293006 22.293L22.293 0.293C22.684 -0.0979999 23.316 -0.0979999 23.707 0.293C24.098 0.684 24.098 1.316 23.707 1.707L1.70701 23.707C1.51201 23.902 1.25601 24 1.00001 24Z"/>
</g>
<defs>
<clipPath id="clip0">
<rect width="24" height="24"/>
</clipPath>
</defs>
</svg>
