<svg width="24" height="24" viewBox="0 0 24 24" xmlns="http://www.w3.org/2000/svg">
<path d="M8.293 14.293L3 19.586V15H1V22C1 22.2652 1.10536 22.5196 1.29289 22.7071C1.48043 22.8946 1.73478 23 2 23H9V21H4.414L9.707 15.707L8.293 14.293Z"/>
<path d="M22 1H15V3H19.586L14.293 8.293L15.707 9.707L21 4.414V9H23V2C23 1.73478 22.8946 1.48043 22.7071 1.29289C22.5196 1.10536 22.2652 1 22 1Z"/>
<path d="M9 3V1H2C1.73478 1 1.48043 1.10536 1.29289 1.29289C1.10536 1.48043 1 1.73478 1 2V9H3V4.414L8.293 9.707L9.707 8.293L4.414 3H9Z"/>
<path d="M21 19.586L15.707 14.293L14.293 15.707L19.586 21H15V23H22C22.2652 23 22.5196 22.8946 22.7071 22.7071C22.8946 22.5196 23 22.2652 23 22V15H21V19.586Z"/>
</svg>
