<?xml version="1.0" encoding="utf-8"?><svg xmlns="http://www.w3.org/2000/svg" xmlns:xlink="http://www.w3.org/1999/xlink"><symbol viewBox="0 0 24 24" id="Icon-CaptionOff" xmlns="http://www.w3.org/2000/svg"><path d="M22.5 5.5h-20a1 1 0 00-1 1v12a1 1 0 001 1h20a1 1 0 001-1v-12a1 1 0 00-1-1z"/><path d="M10.92 15.241a4.375 4.375 0 01-1.557.259 2.49 2.49 0 01-1.963-.776 3.253 3.253 0 01-.691-2.224 3.593 3.593 0 01.333-1.593c.207-.439.543-.804.964-1.046.453-.25.964-.374 1.481-.361a3.68 3.68 0 011.653.375M18.072 15.241a4.384 4.384 0 01-1.557.259 2.49 2.49 0 01-1.968-.776 3.248 3.248 0 01-.687-2.224 3.593 3.593 0 01.333-1.593c.208-.439.544-.804.965-1.046.453-.25.964-.374 1.481-.361a3.673 3.673 0 011.652.375"/></symbol><symbol viewBox="0 0 24 24" id="Icon-CaptionOn" xmlns="http://www.w3.org/2000/svg"><g clip-path="url(#bclip0)"><path d="M23 4H1a1 1 0 00-1 1v14a1 1 0 001 1h22a1 1 0 001-1V5a1 1 0 00-1-1zM9.215 14.3c.342 0 .682-.049 1.01-.146.334-.099.662-.215.983-.349V15.6c-.703.3-1.46.448-2.224.435a3.51 3.51 0 01-2.725-1.031 4.248 4.248 0 01-.949-2.981 4.77 4.77 0 01.459-2.143 3.3 3.3 0 011.322-1.42 3.993 3.993 0 012.027-.5 5.587 5.587 0 012.434.553l-.65 1.67a7.241 7.241 0 00-.871-.343A3.01 3.01 0 009.1 9.7a1.352 1.352 0 00-1.182.62 3 3 0 00-.424 1.711c-.002 1.513.572 2.269 1.721 2.269zm7.138 0c.342 0 .682-.049 1.01-.146.334-.099.662-.215.983-.349V15.6a5.44 5.44 0 01-2.224.435 3.513 3.513 0 01-2.722-1.03 4.248 4.248 0 01-.949-2.981 4.77 4.77 0 01.459-2.143 3.3 3.3 0 011.319-1.421 4 4 0 012.028-.5 5.586 5.586 0 012.433.553l-.65 1.67a7.304 7.304 0 00-.87-.343 3.017 3.017 0 00-.935-.14 1.352 1.352 0 00-1.182.62 3 3 0 00-.424 1.711c0 1.513.575 2.269 1.724 2.269z"/></g><defs><clipPath id="bclip0"><path d="M0 0h24v24H0z"/></clipPath></defs></symbol><symbol viewBox="0 0 24 24" id="Icon-Fullscreen" xmlns="http://www.w3.org/2000/svg"><path d="M8.293 14.293L3 19.586V15H1v7a1 1 0 001 1h7v-2H4.414l5.293-5.293-1.414-1.414zM22 1h-7v2h4.586l-5.293 5.293 1.414 1.414L21 4.414V9h2V2a1 1 0 00-1-1zM9 3V1H2a1 1 0 00-1 1v7h2V4.414l5.293 5.293 1.414-1.414L4.414 3H9zM21 19.586l-5.293-5.293-1.414 1.414L19.586 21H15v2h7a1 1 0 001-1v-7h-2v4.586z"/></symbol><symbol viewBox="0 0 24 24" id="Icon-FullscreenOff" xmlns="http://www.w3.org/2000/svg"><path d="M2.414 23l5.293-5.293v4.586h2v-7a1 1 0 00-1-1h-7v2h4.586L1 21.586 2.414 23zM15.293 9.707h7v-2h-4.586L23 2.414 21.586 1l-5.293 5.293V1.707h-2v7a1 1 0 001 1zM1.707 7.707v2h7a1 1 0 001-1v-7h-2v4.586L2.414 1 1 2.414l5.293 5.293H1.707zM16.293 17.707L21.586 23 23 21.586l-5.293-5.293h4.586v-2h-7a1 1 0 00-1 1v7h2v-4.586z"/></symbol><symbol viewBox="0 0 24 24" id="Icon-Mute" xmlns="http://www.w3.org/2000/svg"><g clip-path="url(#eclip0)"><path d="M10.567 17.675L17.4 22.8a.995.995 0 001.047.095c.339-.17.553-.516.553-.895V9.242l-8.433 8.433zM2 17h5L19 5V2a1.001 1.001 0 00-1.6-.8L9.667 7H2a1 1 0 00-1 1v8a1 1 0 001 1z"/><path d="M1 24a.999.999 0 01-.707-1.707l22-22a.999.999 0 111.414 1.414l-22 22A.997.997 0 011 24z"/></g><defs><clipPath id="eclip0"><path d="M0 0h24v24H0z"/></clipPath></defs></symbol><symbol viewBox="0 0 24 24" id="Icon-NextVideo" xmlns="http://www.w3.org/2000/svg"><path d="M12.625 3.219A.999.999 0 0011 4v6.719l-9.375-7.5A.999.999 0 000 4v16a.999.999 0 001.625.781l9.375-7.5V20a.999.999 0 001.625.781l10-8a1 1 0 000-1.562l-10-8z"/><rect x="21" y="3.063" width="2" height="18" rx="1"/></symbol><symbol viewBox="0 0 24 24" id="Icon-Pause" xmlns="http://www.w3.org/2000/svg"><path d="M8.455 2H3.909A.91.91 0 003 2.91v18.18a.91.91 0 00.91.91h4.545a.91.91 0 00.909-.91V2.91a.91.91 0 00-.91-.91zM19.818 2h-4.545a.91.91 0 00-.91.91v18.18a.909.909 0 00.91.91h4.545a.909.909 0 00.91-.91V2.91a.91.91 0 00-.91-.91z"/></symbol><symbol viewBox="0 0 24 24" id="Icon-PiP" xmlns="http://www.w3.org/2000/svg"><path d="M1 4.063h20v12H1v-12z"/><path d="M11 12.563h12a.5.5 0 01.5.5v7a.5.5 0 01-.5.5H11a.5.5 0 01-.5-.5v-7a.5.5 0 01.5-.5z"/></symbol><symbol viewBox="0 0 17 22" id="Icon-Play" xmlns="http://www.w3.org/2000/svg"><path d="M16.56 10.17l-15-10a1 1 0 00-1-.05A1 1 0 000 1v20a1 1 0 00.53.88A1 1 0 001 22a1 1 0 00.56-.17l15-10a1 1 0 000-1.66z"/></symbol><symbol viewBox="0 0 24 24" id="Icon-Quality" xmlns="http://www.w3.org/2000/svg"><path fill-rule="evenodd" clip-rule="evenodd" d="M1 4h22a1 1 0 011 1v14a1 1 0 01-1 1H1a1 1 0 01-1-1V5a1 1 0 011-1zm8.186 12.531h1.757V8H9.186v3.457H5.758V8H4v8.531h1.758v-3.656h3.428v3.656zM13.444 8v8.531h2.643c.746-.004 1.416-.175 2.01-.515a3.484 3.484 0 001.377-1.436c.328-.617.492-1.322.492-2.115v-.393c0-.793-.166-1.5-.498-2.12a3.505 3.505 0 00-1.389-1.442c-.59-.34-1.26-.51-2.01-.51h-2.625zm1.758 7.12V9.423h.867c.692 0 1.217.224 1.576.674.36.445.54 1.101.54 1.968v.452c-.008.835-.194 1.478-.557 1.927-.363.45-.889.674-1.576.674h-.85z"/></symbol><symbol viewBox="0 0 24 24" id="Icon-Replay" xmlns="http://www.w3.org/2000/svg"><path d="M21 20H3a1 1 0 01-1-1v-5a1 1 0 112 0v4h16V9H10v3L5 8l5-4v3h11a1 1 0 011 1v11a1 1 0 01-1 1z"/></symbol><symbol viewBox="0 0 103 110" id="Icon-Revolver" xmlns="http://www.w3.org/2000/svg"><g filter="url(#lfilter0_d)"><path d="M62.073 37.89l-20-13.333A1.334 1.334 0 0040 25.667v26.666a1.334 1.334 0 002.073 1.11l20-13.334a1.335 1.335 0 000-2.218z"/></g><circle cx="48" cy="39" r="30.667" stroke="#fff" stroke-width="2.667"/><path d="M48 8.333a32 32 0 0112.246 2.436c3.882 1.608 7.45 4.593 10.42 7.564" stroke="#E20074" stroke-width="2.667" stroke-linecap="round"/><defs><filter id="lfilter0_d" x="-5.333" y="-1" width="112" height="112" filterUnits="userSpaceOnUse" color-interpolation-filters="sRGB"><feFlood flood-opacity="0" result="BackgroundImageFix"/><feColorMatrix in="SourceAlpha" values="0 0 0 0 0 0 0 0 0 0 0 0 0 0 0 0 0 0 127 0" result="hardAlpha"/><feOffset dy="16"/><feGaussianBlur stdDeviation="20"/><feColorMatrix values="0 0 0 0 0.490196 0 0 0 0 0.596078 0 0 0 0 0.698039 0 0 0 0.2 0"/><feBlend mode="multiply" in2="BackgroundImageFix" result="effect1_dropShadow"/><feBlend in="SourceGraphic" in2="effect1_dropShadow" result="shape"/></filter></defs></symbol><symbol viewBox="0 0 24 24" id="Icon-Settings" xmlns="http://www.w3.org/2000/svg"><path d="M20.872 13.453c.082-.48.125-.966.128-1.453a9.026 9.026 0 00-.128-1.453l2.1-2.029a1 1 0 00.171-1.218l-1.5-2.6a1.009 1.009 0 00-1.143-.461l-2.8.8a9.018 9.018 0 00-2.527-1.451L14.47.758A1 1 0 0013.5 0h-3a1 1 0 00-.97.758l-.707 2.83A9.017 9.017 0 006.3 5.039l-2.8-.8a1.01 1.01 0 00-1.143.461l-1.5 2.6a1 1 0 00.171 1.219l2.1 2.029c-.082.48-.125.965-.128 1.452.003.487.046.973.128 1.453l-2.1 2.029A1 1 0 00.857 16.7l1.5 2.6a1 1 0 001.142.462l2.8-.8a9.017 9.017 0 002.527 1.451l.707 2.83A1 1 0 0010.5 24h3a1 1 0 00.97-.758l.707-2.83a9.019 9.019 0 002.523-1.451l2.8.8a1 1 0 001.142-.462l1.5-2.6a1 1 0 00-.171-1.219l-2.099-2.027zM12 16a4 4 0 110-8 4 4 0 010 8z"/></symbol><symbol viewBox="0 0 24 24" id="Icon-Share" xmlns="http://www.w3.org/2000/svg"><circle cx="4.174" cy="11.478" r="4.174"/><circle cx="19.826" cy="4.174" r="4.174"/><circle cx="19.826" cy="19.826" r="4.174"/><path d="M20.348 3.734L6.26 11.867 20.348 20"/></symbol><symbol viewBox="0 0 24 24" id="Icon-Volume" xmlns="http://www.w3.org/2000/svg"><path d="M14.447 1.105A1.006 1.006 0 0013.4 1.2L5.667 7H1a1 1 0 00-1 1v8a1 1 0 001 1h4.667l7.733 5.8a.995.995 0 001.047.095c.339-.17.553-.516.553-.895V2c0-.379-.214-.725-.553-.895zM18.243 7.758l-.707-.707-1.414 1.414.707.707a4.003 4.003 0 010 5.656l-.707.707 1.414 1.414.707-.707a6.006 6.006 0 000-8.484z"/><path d="M20.364 4.222L18.95 5.636l.707.707c3.119 3.119 3.119 8.195 0 11.314l-.707.707 1.414 1.414.707-.707c3.899-3.899 3.899-10.243 0-14.143l-.707-.706z"/></symbol><symbol fill="none" viewBox="0 0 56 16" id="LiveIndicator" xmlns="http://www.w3.org/2000/svg"><circle opacity=".2" cx="8" cy="8" r="8" fill="#E20074"/><circle cx="8" cy="8" r="4" fill="#E20074"/><path d="M25.94 11.352h4.354V13h-6.405V3.047h2.05v8.305zM34.776 13h-2.05V3.047h2.05V13zm6.705-2.468l2.256-7.485h2.283L42.555 13h-2.14l-3.451-9.953h2.276l2.242 7.485zm12.59-1.845h-3.937v2.665h4.622V13h-6.672V3.047h6.658v1.661h-4.608V7.08h3.938v1.607z" fill="#E20074"/></symbol></svg>